<svg version="1.1" id="layer" xmlns="http://www.w3.org/2000/svg" xmlns:xlink="http://www.w3.org/1999/xlink" x="0px" y="0px"
	 viewBox="0 0 652 652" style="enable-background:new 0 0 652 652;" xml:space="preserve">
<path d="M249.7,383.4c-2.5,0.1-5.9-2.7-5.8-6.1c0.5-11.2,13.2-10.1,22.2-19C265,370.5,258.4,382.9,249.7,383.4 M177.5,359.3
	c-2.9,12.2-10.2,22.1-16,22.1h0c-5.7-0.1-7.9-9.9-5.1-22.1c3-12.1,10.1-22,15.9-22.1C178.1,337.3,180.5,347.2,177.5,359.3
	 M470.1,331.6c5.3,0.2,5.7,4.1,4.4,10.1l-1.3,5.8h-15l1.8-7.4C461.1,335.2,464.6,331.5,470.1,331.6 M621.4,344.7
	c-1-0.1-2.2,0.8-2.4,1.8c-5.2,20.8-16.3,30.2-29.6,30.9h-23.1l58.9-58.8l-85.7,0.1c-8.8,0-17.4,8.5-20.4,18.8l-4.5,16.6
	c-0.2,1.7-0.3,4.7,1.6,4.7c1.3,0,1.9-1.5,2.4-2.6c6.3-13.5,15.4-16.3,25.6-16l13.5-0.1l-24.7,24.8l-46.5-0.1
	c-16,0-17.3,18.9-28.4,19c-7.3,0.1-7.8-3.6-6.7-7.6l4.2-17.4h49.7c2.1-7.1,5.4-14.1,5.3-23.2c-0.4-17.5-22.4-19.9-39.2-20
	c-17.6-0.2-40.2,5-47,24.1c0-0.1-8.7,33.3-8.7,34.1c0.1,4.8,2.9,9.6,6.1,11.6h-11.7c-5-0.7-7.9-3.7-7.7-8.6c0.2-7.3,9-37.5,9-37.6
	c0.5-1.8,0.5-3.2,0.5-5c-0.6-11.7-10.1-16.9-19.9-17c-15.2-0.2-23.8,6.1-32.3,14.8v-3c0.2-3.9-5.9-9.8-13.7-9.8h-36.4
	c-1-0.1-1.8,0.6-1.9,1.5c0,0.9,0.6,1.4,1.9,1.9c3.8,0.8,14.8,5.5,13.1,12.2l-11.1,44c-1.1,3.7-1.6,6.4-7.6,6.4
	c-6.3,0.1-7.4-4.1-6.3-8.3c3.7-14.9,5.2-21.7,9.5-38.3c4.2-16.3-16.3-22.1-39.3-22.1c-12.1-0.1-28.4,2-37.8,15.1
	c-4.1,5.7-7.4,9-13.2,8.9c0.6-13.1-11.7-23.1-24.6-23.1c-9.5,0-15.8,3.7-23.2,9.5l9-37.3c2.1-9.4-6.8-16.3-14.1-16.3h-24.7
	c-1.8,0-7.4-0.2-7.4,1.5c0,1.6,12.1,3.5,10.8,15.4l-22.3,86.1c-2.1,6.3-5.3,9.4-11.6,9.5c-7.4-0.1-8.9-3.2-6.3-11.6l25.7-97.2
	c3.7-11.5,16.3-16.6,23.7-17.9c3.1-0.5,5.7-0.5,5.8-3.2c-0.1-1.2-0.6-2.6-2.1-2.5H66.7c-2.1-0.1-4.2,2-4.2,4.2
	c-0.1,2.1,2.4,2.6,4.2,2.6c9.4,0,18.9,8.4,16.8,17.3l-24.1,91.9c-4.3,14.8-16.4,20.5-31.5,22.1c-1.1,0.1-2.7,2.4-2.6,4.3
	c0,1.5,2.8,1.5,4.7,1.5h100.9c9.1,0,14.7-4.2,20.6-11.5c5.7,8.9,14.3,13.6,25.2,13.6l0,0c24.6-0.8,37.5-25.9,39.6-50.1l23.2,0.1
	c13.6,0,20.3-15.3,27.7-15.3c3.5,0,5.2,2.7,4.9,5.2c-1.2,9.7-14.2,13.6-24.7,15.4c-16,2.6-32.3,9.4-33,25.7
	c-0.5,10.9,9.4,19,20.4,19.2c11.1,0.2,19.1-5.6,25.9-12.7c0,5.2,5.7,10.2,11.6,10.2H319c11.8-0.2,24.4-0.9,28.2-16.1l8.6-33.3
	c1.1-4.8,5.2-8.5,10.2-8.3c5.3,0.1,8.3,3.8,6.9,9.8l-8.5,34.8c-1.7,7.8,5.7,13.1,13.4,13.1h96.3c22.9-0.3,23.4-22.6,35.1-22.4h13.6
	L500.1,397h92.8c10.4-0.2,21.5-5.6,23.6-17.7l6.2-31.9C622.8,346.6,622.7,344.9,621.4,344.7"/>
</svg>
